<svg width="18" height="15" viewBox="0 0 18 15" fill="none" xmlns="http://www.w3.org/2000/svg">
<path d="M1.31802 4.31802C3.0143 2.62174 5.72789 2.56278 7.49488 4.14116L10.318 1.31802C12.0754 -0.43934 14.9246 -0.43934 16.682 1.31802C18.4393 3.07538 18.4393 5.92462 16.682 7.68198L10.682 13.682C8.92462 15.4393 6.07538 15.4393 4.31802 13.682L1.31802 10.682C-0.43934 8.92462 -0.43934 6.07538 1.31802 4.31802Z" fill="#212044"/>
<path fill-rule="evenodd" clip-rule="evenodd" d="M14.5607 3.43934C15.1464 4.02513 15.1464 4.97487 14.5607 5.56066L8.56066 11.5607C7.97487 12.1464 7.02513 12.1464 6.43934 11.5607L3.43934 8.56066C2.85355 7.97487 2.85355 7.02513 3.43934 6.43934C4.02513 5.85355 4.97487 5.85355 5.56066 6.43934L7.5 8.37868L12.4393 3.43934C13.0251 2.85355 13.9749 2.85355 14.5607 3.43934Z" fill="#28EE94"/>
</svg>
