<svg width="78" height="78" viewBox="0 0 78 78" fill="none" xmlns="http://www.w3.org/2000/svg">
<path fill-rule="evenodd" clip-rule="evenodd" d="M5.31355 6.42398C0 12.1722 0 21.1148 0 39C0 56.8852 0 65.8279 5.31355 71.576C5.66901 71.9606 6.03944 72.331 6.42398 72.6864C12.1722 78 21.1148 78 39 78C56.8852 78 65.8279 78 71.576 72.6864C71.9606 72.331 72.331 71.9606 72.6864 71.576C78 65.8279 78 56.8852 78 39C78 21.1148 78 12.1722 72.6864 6.42398C72.331 6.03944 71.9606 5.66901 71.576 5.31355C65.8279 0 56.8852 0 39 0C21.1148 0 12.1722 0 6.42398 5.31355C6.03944 5.66901 5.66901 6.03944 5.31355 6.42398ZM32.8569 52.444L54.0069 40.233C55.0939 39.606 55.0939 38.036 54.0069 37.409L32.8569 25.198C31.7699 24.57 30.4109 25.355 30.4109 26.61V51.032C30.4109 52.287 31.7699 53.072 32.8569 52.444Z" fill="#8420A7"/>
<path fill-rule="evenodd" clip-rule="evenodd" d="M5.31355 6.42398C0 12.1722 0 21.1148 0 39C0 56.8852 0 65.8279 5.31355 71.576C5.66901 71.9606 6.03944 72.331 6.42398 72.6864C12.1722 78 21.1148 78 39 78C56.8852 78 65.8279 78 71.576 72.6864C71.9606 72.331 72.331 71.9606 72.6864 71.576C78 65.8279 78 56.8852 78 39C78 21.1148 78 12.1722 72.6864 6.42398C72.331 6.03944 71.9606 5.66901 71.576 5.31355C65.8279 0 56.8852 0 39 0C21.1148 0 12.1722 0 6.42398 5.31355C6.03944 5.66901 5.66901 6.03944 5.31355 6.42398ZM32.8569 52.444L54.0069 40.233C55.0939 39.606 55.0939 38.036 54.0069 37.409L32.8569 25.198C31.7699 24.57 30.4109 25.355 30.4109 26.61V51.032C30.4109 52.287 31.7699 53.072 32.8569 52.444Z" fill="url(#paint0_linear)"/>
<defs>
<linearGradient id="paint0_linear" x1="0" y1="0" x2="78" y2="78" gradientUnits="userSpaceOnUse">
<stop stop-color="#8420A7"/>
<stop offset="1" stop-color="#55126D"/>
</linearGradient>
</defs>
</svg>
