<?xml version="1.0" standalone="no"?>
<!DOCTYPE svg PUBLIC "-//W3C//DTD SVG 20010904//EN"
 "http://www.w3.org/TR/2001/REC-SVG-20010904/DTD/svg10.dtd">
<svg version="1.0" xmlns="http://www.w3.org/2000/svg"
 width="606.000000pt" height="606.000000pt" viewBox="0 0 606.000000 606.000000"
 preserveAspectRatio="xMidYMid meet">
<metadata>
Created by potrace 1.11, written by Peter Selinger 2001-2013
</metadata>
<g transform="translate(0.000000,606.000000) scale(0.100000,-0.100000)"
fill="#000000" stroke="none">
<path d="M0 3030 l0 -3030 505 0 505 0 0 3030 0 3030 -505 0 -505 0 0 -3030z"/>
<path d="M2020 3030 l0 -3030 505 0 505 0 0 3030 0 3030 -505 0 -505 0 0
-3030z"/>
<path d="M4040 3030 l0 -3030 505 0 505 0 0 3030 0 3030 -505 0 -505 0 0
-3030z"/>
</g>
</svg>
